<svg xmlns="http://www.w3.org/2000/svg" viewBox="0 0 512 512" role="img" aria-labelledby="title desc">
  <title id="title">天街流年头像</title>
  <desc id="desc">A small sailboat under a blue sky on the sea.</desc>
  <defs>
    <linearGradient id="sky" x1="0" x2="0" y1="0" y2="1">
      <stop offset="0" stop-color="#26496d"/>
      <stop offset="0.48" stop-color="#78d7e2"/>
      <stop offset="0.72" stop-color="#e9ffff"/>
      <stop offset="1" stop-color="#0f6d8a"/>
    </linearGradient>
    <linearGradient id="sea" x1="0" x2="0" y1="0" y2="1">
      <stop offset="0" stop-color="#0b4f73"/>
      <stop offset="0.52" stop-color="#28c4d4"/>
      <stop offset="1" stop-color="#103d58"/>
    </linearGradient>
    <linearGradient id="sail" x1="0" x2="1" y1="0" y2="1">
      <stop offset="0" stop-color="#ffffff"/>
      <stop offset="1" stop-color="#c8d1d7"/>
    </linearGradient>
    <filter id="soft" x="-20%" y="-20%" width="140%" height="140%">
      <feGaussianBlur stdDeviation="9"/>
    </filter>
  </defs>
  <rect width="512" height="512" fill="url(#sky)"/>
  <path d="M0 158c50 22 93 10 139-5 72-24 142-13 213-2 56 9 104-4 160-38v116H0z" fill="#edfaff" opacity="0.5" filter="url(#soft)"/>
  <path d="M0 304h512v208H0z" fill="url(#sea)"/>
  <path d="M0 360c66-25 131-25 196 2 65 27 127 24 187-2 49-21 87-23 129-9v161H0z" fill="#0c4867" opacity="0.32"/>
  <path d="M55 398c68-28 124-29 183-1 47 23 90 21 142-5 37-18 76-16 112 0" fill="none" stroke="#bffaff" stroke-width="9" opacity="0.42" stroke-linecap="round"/>
  <path d="M118 432c45-16 85-17 126 0 35 14 69 13 109-4 31-13 64-11 94 1" fill="none" stroke="#eaffff" stroke-width="6" opacity="0.3" stroke-linecap="round"/>
  <path d="M252 155l3 176" fill="none" stroke="#e8eef2" stroke-width="7" stroke-linecap="round"/>
  <path d="M253 164c-46 51-73 103-91 164 34-7 66-8 95-3z" fill="url(#sail)" opacity="0.96"/>
  <path d="M266 178c44 48 70 91 86 139-29-12-58-16-87-11z" fill="#d4d9dc" opacity="0.94"/>
  <path d="M146 333c67 16 143 17 217 2-14 18-42 29-102 30-62 0-97-9-115-32z" fill="#705f64"/>
  <path d="M156 328c61 16 128 17 197 3" fill="none" stroke="#f1d0b5" stroke-width="6" stroke-linecap="round"/>
  <path d="M188 381c43-15 89-15 134 0" fill="none" stroke="#eaffff" stroke-width="7" opacity="0.38" stroke-linecap="round"/>
  <g fill="none" stroke="#f8ffff" stroke-width="7" stroke-linecap="round" opacity="0.8">
    <path d="M248 74c10 12 27 12 38 0"/>
    <path d="M318 108c10 12 27 12 38 0"/>
    <path d="M395 86c9 10 23 10 32 0"/>
  </g>
  <path d="M425 386l18 32 33 7-27 20 4 34-28-19-31 15 9-33-23-25 34-2z" fill="#eaffff" opacity="0.9"/>
</svg>
